# xmcd
#
# Track frame offsets: 
#        150
#        18804
#        39144
#        60196
#        75379
#        95506
#        109485
#        125886
#        145956
#        162618
#        182029
#        206173
#        224806
#
# Disc length: 3277 seconds
#
# Revision: 0
# Processed by: cddbd v1.5.2PL0 Copyright (c) Steve Scherf et al.
# Submitted via: ExactAudioCopyFreeDBPlugin 1.0
#
DISCID=bb0ccb0d
DTITLE=Various Artist - Mavis Staples - I'll Take You There - An All-
DTITLE=Star Concert Celebration [CD 1)
DYEAR=2017
DGENRE=R&B
TTITLE0=Joan Osborne - You're Driving Me (To The Arms Of A Stranger)
TTITLE1=Keb' Mo' - Heavy Makes You Happy
TTITLE2=Otis Clay - I Ain't Raisin' No Sand
TTITLE3=Buddy Miller - Woke Up This Morning (With My Mind On Jesus) 
TTITLE4=Patty Griffin - Waiting For My Child To Come Home
TTITLE5=Emmylou Harris - Far Celestial Shore
TTITLE6=Michael McDonald - Freedom Highway
TTITLE7=Glen Hansard - People, Get Ready
TTITLE8=Mavis Staples and Aaron Neville - Respect Yourself
TTITLE9=Ryan Bingham - If You're Ready (Come Go With Me)
TTITLE10=Widespread Panic - Hope In A Hopeless World
TTITLE11=Grace Potter - Grandma's Hands
TTITLE12=Eric Church - Eyes On The Prize
EXTD=Sean P.
EXTT0=
EXTT1=
EXTT2=
EXTT3=
EXTT4=
EXTT5=
EXTT6=
EXTT7=
EXTT8=
EXTT9=
EXTT10=
EXTT11=
EXTT12=
PLAYORDER=
